<svg xmlns="http://www.w3.org/2000/svg" width="430" height="430" style="width:100%;height:100%;transform:translate3d(0,0,0);content-visibility:visible" viewBox="0 0 430 430"><defs><mask id="u" mask-type="alpha"><use xmlns:ns1="http://www.w3.org/1999/xlink" ns1:href="#a"/></mask><mask id="t" mask-type="alpha"><use xmlns:ns2="http://www.w3.org/1999/xlink" ns2:href="#b"/></mask><mask id="r" mask-type="alpha"><use xmlns:ns3="http://www.w3.org/1999/xlink" ns3:href="#c"/></mask><mask id="q" mask-type="alpha"><use xmlns:ns4="http://www.w3.org/1999/xlink" ns4:href="#d"/></mask><mask id="o" mask-type="alpha"><use xmlns:ns5="http://www.w3.org/1999/xlink" ns5:href="#e"/></mask><mask id="n" mask-type="alpha"><use xmlns:ns6="http://www.w3.org/1999/xlink" ns6:href="#f"/></mask><mask id="l" mask-type="alpha"><use xmlns:ns7="http://www.w3.org/1999/xlink" ns7:href="#g"/></mask><mask id="k" mask-type="alpha"><use xmlns:ns8="http://www.w3.org/1999/xlink" ns8:href="#h"/></mask><path id="a" style="display:none"/><path id="c" style="display:none"/><path id="d" style="display:none"/><path id="f" fill="red" d="M156 338.5c0 19.04-15.46 34.5-34.5 34.5S87 357.54 87 338.5s15.46-34.5 34.5-34.5 34.5 15.46 34.5 34.5" style="display:block"/><path id="g" style="display:none"/><path id="h" style="display:none"/><path id="e" fill="red" d="M34.5 0c0 19.04-15.46 34.5-34.5 34.5S-34.5 19.04-34.5 0-19.04-34.5 0-34.5 34.5-19.04 34.5 0" style="display:block" transform="translate(295.5 255.5)"/><clipPath id="i"><path d="M0 0h430v430H0z"/></clipPath><clipPath id="s"><path d="M0 0h430v430H0z"/></clipPath><clipPath id="p"><path d="M0 0h430v430H0z"/></clipPath><clipPath id="m"><path d="M0 0h430v430H0z"/></clipPath><clipPath id="j"><path d="M0 0h430v430H0z"/></clipPath><g id="b" style="display:none"><path/><path style="mix-blend-mode:multiply"/></g></defs><g clip-path="url(#i)"><g clip-path="url(#j)" style="display:none"><path fill="none" class="primary" style="display:none"/><g style="display:none"><path class="secondary"/><path class="secondary" style="mix-blend-mode:multiply"/></g><g mask="url(#k)" style="display:none"><path class="secondary"/></g><path fill="none" class="primary" style="display:none"/><path fill="none" class="primary" style="display:none"/><g style="display:none"><path class="secondary"/><path class="secondary" style="mix-blend-mode:multiply"/></g><g mask="url(#l)" style="display:none"><path class="secondary"/></g><path fill="none" class="primary" style="display:none"/><g style="display:none"><path class="secondary"/><path class="secondary" style="mix-blend-mode:multiply"/></g><path fill="none" class="primary" style="display:none"/></g><g clip-path="url(#m)" style="display:block"><path fill="none" stroke="#121330" stroke-linecap="round" stroke-width="7" d="M0-69.25v138.5" class="primary" style="display:block" transform="translate(156 268.25)"/><g fill="#393346" style="display:block"><path d="M156 338.5c0 19.04-15.46 34.5-34.5 34.5S87 357.54 87 338.5s15.46-34.5 34.5-34.5 34.5 15.46 34.5 34.5" class="secondary"/><path fill-opacity=".5" d="M34.5 0c0 19.04-15.46 34.5-34.5 34.5S-34.5 19.04-34.5 0-19.04-34.5 0-34.5 34.5-19.04 34.5 0" class="secondary" style="mix-blend-mode:multiply" transform="translate(121.5 338.5)"/></g><g mask="url(#n)" style="display:block"><path fill="#393346" d="M176.938 338.5c0 19.04-15.46 34.5-34.5 34.5s-34.5-15.46-34.5-34.5 15.46-34.5 34.5-34.5 34.5 15.46 34.5 34.5" class="secondary"/></g><path fill="none" stroke="#121330" stroke-linejoin="round" stroke-width="7" d="M34.5 0c0 19.04-15.46 34.5-34.5 34.5S-34.5 19.04-34.5 0-19.04-34.5 0-34.5 34.5-19.04 34.5 0z" class="primary" style="display:block" transform="translate(121.5 338.5)"/><path fill="none" stroke="#121330" stroke-linecap="round" stroke-width="7" d="M0-62V62" class="primary" style="display:block" transform="translate(330 193)"/><g fill="#393346" style="display:block"><path d="M330 255.5c0 19.04-15.46 34.5-34.5 34.5S261 274.54 261 255.5s15.46-34.5 34.5-34.5 34.5 15.46 34.5 34.5" class="secondary"/><path fill-opacity=".5" d="M34.5 0c0 19.04-15.46 34.5-34.5 34.5S-34.5 19.04-34.5 0-19.04-34.5 0-34.5 34.5-19.04 34.5 0" class="secondary" style="mix-blend-mode:multiply" transform="translate(295.5 255.5)"/></g><g mask="url(#o)" style="display:block"><path fill="#393346" d="M350.875 255.5c0 19.04-15.46 34.5-34.5 34.5s-34.5-15.46-34.5-34.5 15.46-34.5 34.5-34.5 34.5 15.46 34.5 34.5" class="secondary"/></g><path fill="none" stroke="#121330" stroke-linejoin="round" stroke-width="7" d="M34.5 0c0 19.04-15.46 34.5-34.5 34.5S-34.5 19.04-34.5 0-19.04-34.5 0-34.5 34.5-19.04 34.5 0z" class="primary" style="display:block" transform="translate(295.5 255.5)"/><g fill="#393346" style="display:block"><path d="m156.233 202.75 173.884-71.513-.225-90.017c-.004-2.133-2.169-3.581-4.141-2.77l-167.888 69.047a3 3 0 0 0-1.859 2.78z" class="secondary"/><path d="m-86.767-45.229 41.884-17.226L-45-156.99l-42 17.274z" class="secondary" opacity=".5" style="mix-blend-mode:multiply" transform="translate(243.002 247.986)"/></g><path fill="none" stroke="#121330" stroke-linecap="round" stroke-linejoin="round" stroke-width="7" d="M-86.885 83.25 87 11.737l-.115-94.987L-87-11.737z" class="primary" style="display:block" transform="translate(243 119.25)"/></g><g clip-path="url(#p)" style="display:none"><path fill="none" class="primary" style="display:none"/><g style="display:none"><path class="secondary"/><path class="secondary" style="mix-blend-mode:multiply"/></g><g mask="url(#q)" style="display:none"><path class="secondary"/></g><path fill="none" class="primary" style="display:none"/><path fill="none" class="primary" style="display:none"/><g style="display:none"><path class="secondary"/><path class="secondary" style="mix-blend-mode:multiply"/></g><g mask="url(#r)" style="display:none"><path class="secondary"/></g><path fill="none" class="primary" style="display:none"/><g style="display:none"><path class="secondary"/><path class="secondary" style="mix-blend-mode:multiply"/></g><path fill="none" class="primary" style="display:none"/></g><g clip-path="url(#s)" style="display:none"><path fill="none" class="primary" style="display:none"/><g style="display:none"><path class="secondary"/><path class="secondary" style="mix-blend-mode:multiply"/></g><g mask="url(#t)" style="display:none"><path class="secondary"/></g><path fill="none" class="primary" style="display:none"/><path fill="none" class="primary" style="display:none"/><g style="display:none"><path class="secondary"/><path class="secondary" style="mix-blend-mode:multiply"/></g><g mask="url(#u)" style="display:none"><path class="secondary"/></g><path fill="none" class="primary" style="display:none"/><g style="display:none"><path class="secondary"/><path class="secondary" style="mix-blend-mode:multiply"/></g><path fill="none" class="primary" style="display:none"/></g></g></svg>